<?xml version="1.0" encoding="iso-8859-1"?>
<!-- Generator: Adobe Illustrator 22.1.0, SVG Export Plug-In . SVG Version: 6.00 Build 0)  -->
<svg version="1.1" xmlns="http://www.w3.org/2000/svg" xmlns:xlink="http://www.w3.org/1999/xlink" x="0px" y="0px"
	 viewBox="0 0 50 50" style="enable-background:new 0 0 50 50;" xml:space="preserve">
<g id="Layer_1">
	<path d="M44,1H6C3.243,1,1,3.243,1,6v38c0,2.757,2.243,5,5,5h38c2.757,0,5-2.243,5-5V6C49,3.243,46.757,1,44,1z M47,44
		c0,1.654-1.346,3-3,3H6c-1.654,0-3-1.346-3-3V6c0-1.654,1.346-3,3-3h38c1.654,0,3,1.346,3,3V44z"/>
	<path d="M8,42h8V19H8V42z M10,21h4v19h-4V21z"/>
	<path d="M12,7c-2.757,0-5,2.243-5,5s2.243,5,5,5s5-2.243,5-5S14.757,7,12,7z M12,15c-1.654,0-3-1.346-3-3s1.346-3,3-3s3,1.346,3,3
		S13.654,15,12,15z"/>
	<path d="M31,19c-1.363,0-2.703,0.308-4,0.916V19h-8v23h8V31c0-2.206,1.794-4,4-4s4,1.794,4,4v11h8V31C43,24.383,37.617,19,31,19z
		 M41,40h-4v-9c0-3.309-2.691-6-6-6s-6,2.691-6,6v9h-4V21h4v2.521l1.561-1.057C27.996,21.493,29.489,21,31,21
		c5.514,0,10,4.486,10,10V40z"/>
</g>
<g>
</g>
</svg>
